<svg viewBox="62 50 376 432" xmlns="http://www.w3.org/2000/svg" role="img" aria-label="Quzyn">
  <!-- sun / dome -->
  <path d="M75 300 A175 175 0 0 1 425 300 Z" fill="#F6C31C"/>

  <!-- house body -->
  <rect x="160" y="238" width="180" height="66" rx="4" fill="#FFFFFF" stroke="#241F20" stroke-width="8"/>

  <!-- roof -->
  <polygon points="250,158 128,248 372,248" fill="#E23B2E" stroke="#241F20" stroke-width="9" stroke-linejoin="round"/>

  <!-- door -->
  <rect x="226" y="262" width="46" height="42" rx="6" fill="#E23B2E" stroke="#241F20" stroke-width="6"/>
  <circle cx="235" cy="285" r="3.5" fill="#241F20"/>

  <!-- window -->
  <rect x="292" y="260" width="34" height="34" fill="#FFFFFF" stroke="#241F20" stroke-width="6"/>
  <line x1="309" y1="260" x2="309" y2="294" stroke="#241F20" stroke-width="4"/>
  <line x1="292" y1="277" x2="326" y2="277" stroke="#241F20" stroke-width="4"/>

  <!-- chef hat: dark outline layer -->
  <g fill="#241F20">
    <rect x="190" y="150" width="120" height="46" rx="20"/>
    <circle cx="202" cy="128" r="41"/>
    <circle cx="250" cy="108" r="49"/>
    <circle cx="298" cy="128" r="39"/>
  </g>
  <!-- chef hat: white top layer (creates uniform outline) -->
  <g fill="#FFFFFF">
    <rect x="197" y="157" width="106" height="35" rx="15"/>
    <circle cx="202" cy="128" r="33"/>
    <circle cx="250" cy="108" r="41"/>
    <circle cx="298" cy="128" r="31"/>
  </g>

  <!-- wordmark -->
  <text x="250" y="452" text-anchor="middle" font-family="Georgia, 'Times New Roman', serif" font-size="94" font-weight="700" fill="#C0281F">Quzyn</text>
</svg>
